<svg width="46" height="45" viewBox="0 0 46 45" fill="none" xmlns="http://www.w3.org/2000/svg">
<path d="M4.56384 45H26.5159C27.8328 45.0007 29.1341 44.7053 30.3305 44.1342C31.5268 43.563 32.5898 42.7296 33.4461 41.6913L45.0885 27.5945C45.3323 27.2998 45.5025 26.9474 45.5842 26.5684C45.6658 26.1893 45.6564 25.7953 45.5568 25.4209C45.4571 25.0465 45.2703 24.7033 45.0127 24.4215C44.7552 24.1397 44.4348 23.928 44.0799 23.805L39.5891 22.2513C38.5037 21.8852 37.348 21.8023 36.2244 22.0101C35.1009 22.2179 34.0439 22.7099 33.1472 23.4426L25.8793 29.475L24.4713 26.55C23.717 24.9733 22.5525 23.6473 21.1094 22.7222C19.6664 21.7972 18.0027 21.3099 16.3066 21.3158H4.56384C2.04688 21.3158 0 23.4403 0 26.0526V40.2632C0 42.8755 2.04688 45 4.56384 45ZM4.56384 26.0526H16.3066C18.0477 26.0526 19.6108 27.0545 20.389 28.6697L21.409 30.7895H11.4096V35.5263H25.1331C25.4842 35.5215 25.8294 35.4323 26.1417 35.2658L26.1485 35.2634L26.1577 35.2587H26.1645L26.1691 35.2563H26.1782L26.1805 35.2539C26.201 35.2611 26.1873 35.2516 26.1873 35.2516C26.2101 35.2516 26.1919 35.2492 26.1919 35.2492H26.1942L26.1987 35.2468L26.2056 35.2445L26.2101 35.2421L26.2147 35.2397L26.2216 35.2374L26.2261 35.235C26.233 35.235 26.2284 35.2326 26.2307 35.2326L26.2375 35.2279L26.2421 35.2255L26.2467 35.2232L26.2535 35.2208L26.2581 35.2184H26.2604L26.2649 35.2161H26.2672L26.2718 35.2137L26.2763 35.2113C26.2969 35.209 26.2832 35.2089 26.2832 35.2089L26.2877 35.2066C26.3757 35.1515 26.4596 35.0897 26.5387 35.0218L35.9996 27.1658C36.5975 26.6732 37.4212 26.5192 38.1446 26.7703L39.4156 27.2108L29.9844 38.6337C29.5506 39.145 29.017 39.5546 28.419 39.8356C27.821 40.1165 27.1723 40.2623 26.5159 40.2632H4.56384V26.0526ZM31.9469 2.22766e-05H31.9081C31.5361 0.00475912 29.6125 0.0923905 27.3831 1.66976C25.2129 0.135022 23.3349 0.0118642 22.8922 0.00239052L22.8238 2.22766e-05H22.8147C20.9868 2.22766e-05 19.2663 0.741338 17.9793 2.07949C16.6877 3.42239 15.9734 5.20581 15.9734 7.10528C15.9734 9.00475 16.6877 10.7882 17.9382 12.0884L25.7287 20.5816C25.943 20.8125 26.2001 20.9962 26.4844 21.1216C26.7688 21.2469 27.0746 21.3114 27.3835 21.3112C27.6925 21.311 27.9982 21.2461 28.2824 21.1203C28.5666 20.9945 28.8234 20.8105 29.0375 20.5792L36.7869 12.1287C38.0807 10.7882 38.7927 9.00475 38.7927 7.10528C38.7927 5.20581 38.0784 3.42239 36.7891 2.08186C36.1555 1.42 35.4017 0.895188 34.5713 0.537832C33.7409 0.180476 32.8504 -0.00232262 31.9515 2.22766e-05H31.9469ZM34.2288 7.10528C34.2288 7.73765 33.9915 8.33212 33.5191 8.82239L27.3831 15.5132L21.2059 8.77975C20.7746 8.33212 20.5373 7.73765 20.5373 7.10528C20.5373 6.47291 20.7746 5.87844 21.2082 5.42844C21.6208 4.99279 22.1827 4.74418 22.7713 4.73686C22.8283 4.73923 23.9168 4.81265 25.2061 5.88555C25.3909 6.03949 25.5781 6.21475 25.7697 6.41133L27.3831 8.08581L28.9964 6.41133C29.1881 6.21475 29.3752 6.03949 29.56 5.88555C30.7671 4.87897 31.7872 4.75344 31.9606 4.73923C32.258 4.73917 32.5525 4.80026 32.827 4.91896C33.1016 5.03766 33.3508 5.21162 33.5602 5.43081C33.9915 5.87844 34.2288 6.47291 34.2288 7.10528Z" fill="#4C6C5D"/>
</svg>
