<svg width="72" height="50" viewBox="0 0 72 50" fill="none" xmlns="http://www.w3.org/2000/svg">
<path d="M60.5143 21.8286C58.9536 9.53572 48.425 0 35.7143 0C25.8714 0 17.3214 5.75357 13.4179 14.8214C5.74643 17.1143 0 24.3571 0 32.1429C0 41.9893 8.01071 50 17.8571 50H21.4286V42.8571H17.8571C11.95 42.8571 7.14286 38.05 7.14286 32.1429C7.14286 27.1286 11.425 22.2964 16.6893 21.3714L18.7643 21.0071L19.45 19.0143C21.9607 11.6893 28.1929 7.14286 35.7143 7.14286C45.5607 7.14286 53.5714 15.1536 53.5714 25V28.5714H57.1429C61.0821 28.5714 64.2857 31.775 64.2857 35.7143C64.2857 39.6536 61.0821 42.8571 57.1429 42.8571H50V50H57.1429C65.0214 50 71.4286 43.5929 71.4286 35.7143C71.4243 32.5126 70.3468 29.4047 68.3683 26.8875C66.3897 24.3703 63.6244 22.5891 60.5143 21.8286Z" fill="#4C6C5D"/>
<path d="M39.2859 32.1429V17.8571H32.143V32.1429H21.4287L35.7144 50L50.0001 32.1429H39.2859Z" fill="#4C6C5D"/>
</svg>
