<svg width="41" height="50" viewBox="0 0 41 50" fill="none" xmlns="http://www.w3.org/2000/svg">
<path d="M38.3821 12.7558C39.3464 11.7914 39.877 10.5107 39.877 9.14843C39.877 7.78611 39.3464 6.50543 38.3821 5.5411L34.3359 1.49497C33.3716 0.530639 32.0909 0 30.7286 0C29.3663 0 28.0856 0.530639 27.1238 1.49242L0 28.5321V39.7954H11.2582L38.3821 12.7558ZM30.7286 5.1023L34.7773 9.14588L30.721 13.1869L26.6748 9.14332L30.7286 5.1023ZM5.1023 34.6931V30.6495L23.0624 12.7455L27.1085 16.7917L9.15098 34.6931H5.1023ZM0 44.8977H40.8184V50H0V44.8977Z" fill="#4C6C5D"/>
</svg>
