<svg width="72" height="50" viewBox="0 0 72 50" fill="none" xmlns="http://www.w3.org/2000/svg">
<path d="M39.2859 50V35.7143H50.0001L35.7144 17.8571L21.4287 35.7143H32.143V50H39.2859Z" fill="#4C6C5D"/>
<path d="M17.8571 50H25V42.8571H17.8571C11.95 42.8571 7.14286 38.05 7.14286 32.1429C7.14286 27.1286 11.425 22.3 16.6893 21.375L18.7643 21.0107L19.45 19.0179C21.9607 11.6929 28.1964 7.14286 35.7143 7.14286C45.5607 7.14286 53.5714 15.1536 53.5714 25V28.5714H57.1429C61.0821 28.5714 64.2857 31.775 64.2857 35.7143C64.2857 39.6536 61.0821 42.8571 57.1429 42.8571H46.4286V50H57.1429C65.0214 50 71.4286 43.5929 71.4286 35.7143C71.4231 32.5129 70.3451 29.4056 68.3668 26.8887C66.3884 24.3717 63.6238 22.5902 60.5143 21.8286C58.9536 9.53572 48.4286 0 35.7143 0C25.8714 0 17.3214 5.75357 13.4179 14.8214C5.74643 17.1143 0 24.3571 0 32.1429C0 41.9893 8.01071 50 17.8571 50Z" fill="#4C6C5D"/>
</svg>
