<svg width="40" height="43" viewBox="0 0 40 43" fill="none" xmlns="http://www.w3.org/2000/svg">
<path d="M35.7894 0H14.7366C12.4144 0 10.526 1.88844 10.526 4.21057V15.9707L0.6164 25.8803C0.322061 26.1747 0.121625 26.5498 0.0404288 26.9581C-0.0407669 27.3665 0.000924118 27.7897 0.160231 28.1743C0.319538 28.559 0.589309 28.8877 0.935439 29.1191C1.28157 29.3504 1.68852 29.4739 2.10484 29.474V40.0005C2.10484 40.5588 2.32664 41.0943 2.72146 41.4891C3.11628 41.8839 3.65177 42.1057 4.21012 42.1057H37.8947C38.4531 42.1057 38.9886 41.8839 39.3834 41.4891C39.7782 41.0943 40 40.5588 40 40.0005V4.21057C40 1.88844 38.1116 0 35.7894 0ZM18.9471 37.8952H6.31541V26.135L12.6313 19.8192L18.9471 26.135V37.8952ZM35.7894 37.8952H23.1577V29.474C23.5745 29.4749 23.9821 29.352 24.3289 29.1208C24.6757 28.8897 24.946 28.5607 25.1055 28.1756C25.2649 27.7906 25.3064 27.3668 25.2246 26.9582C25.1429 26.5495 24.9415 26.1743 24.6461 25.8803L14.7366 15.9707V4.21057H35.7894V37.8952Z" fill="#4C6C5D"/>
<path d="M18.947 8.42114H23.1576V12.6317H18.947V8.42114ZM27.3682 8.42114H31.5787V12.6317H27.3682V8.42114ZM27.3682 16.9076H31.5787V21.0529H27.3682V16.9076ZM27.3682 25.2634H31.5787V29.474H27.3682V25.2634ZM10.5259 27.3687H14.7365V31.5793H10.5259V27.3687Z" fill="#4C6C5D"/>
</svg>
